<mxfile host="app.diagrams.net" modified="2021-11-22T12:11:13.830Z" agent="5.0 (Windows NT 10.0; Win64; x64) AppleWebKit/537.36 (KHTML, like Gecko) Chrome/96.0.4664.45 Safari/537.36" etag="k5KrpiBW-hD00JCmfhld" version="15.7.4" type="github">
  <diagram id="6G9HCoJTXRIu4c-0Yo63" name="Page-1">
    <mxGraphModel dx="2191" dy="1912" grid="1" gridSize="10" guides="1" tooltips="1" connect="1" arrows="1" fold="1" page="1" pageScale="1" pageWidth="827" pageHeight="1169" math="0" shadow="0">
      <root>
        <mxCell id="0" />
        <mxCell id="1" parent="0" />
        <mxCell id="-TqONQY60ksFpiLHSI3q-1" value="&lt;font style=&quot;font-size: 18px&quot;&gt;MSI&lt;/font&gt;" style="text;html=1;align=center;verticalAlign=middle;resizable=0;points=[];autosize=1;strokeColor=none;fillColor=none;" vertex="1" parent="1">
          <mxGeometry x="45" y="60" width="50" height="20" as="geometry" />
        </mxCell>
        <mxCell id="-TqONQY60ksFpiLHSI3q-2" value="&lt;font style=&quot;font-size: 25px&quot;&gt;Two Level Cache Hierarchy&lt;/font&gt;" style="text;html=1;align=center;verticalAlign=middle;resizable=0;points=[];autosize=1;strokeColor=none;fillColor=none;" vertex="1" parent="1">
          <mxGeometry width="320" height="20" as="geometry" />
        </mxCell>
        <mxCell id="-TqONQY60ksFpiLHSI3q-8" style="edgeStyle=orthogonalEdgeStyle;rounded=0;orthogonalLoop=1;jettySize=auto;html=1;exitX=0;exitY=0.75;exitDx=0;exitDy=0;entryX=0;entryY=0.5;entryDx=0;entryDy=0;fontSize=18;" edge="1" parent="1" source="-TqONQY60ksFpiLHSI3q-3" target="-TqONQY60ksFpiLHSI3q-5">
          <mxGeometry relative="1" as="geometry">
            <Array as="points">
              <mxPoint x="-230" y="380" />
              <mxPoint x="-230" y="440" />
            </Array>
          </mxGeometry>
        </mxCell>
        <mxCell id="-TqONQY60ksFpiLHSI3q-3" value="L1" style="rounded=0;whiteSpace=wrap;html=1;fontSize=18;" vertex="1" parent="1">
          <mxGeometry x="-160" y="350" width="120" height="40" as="geometry" />
        </mxCell>
        <mxCell id="-TqONQY60ksFpiLHSI3q-6" style="edgeStyle=orthogonalEdgeStyle;rounded=0;orthogonalLoop=1;jettySize=auto;html=1;exitX=0;exitY=1;exitDx=0;exitDy=0;entryX=0;entryY=0.25;entryDx=0;entryDy=0;fontSize=18;" edge="1" parent="1" source="-TqONQY60ksFpiLHSI3q-4" target="-TqONQY60ksFpiLHSI3q-3">
          <mxGeometry relative="1" as="geometry" />
        </mxCell>
        <mxCell id="-TqONQY60ksFpiLHSI3q-4" value="core" style="ellipse;whiteSpace=wrap;html=1;fontSize=18;" vertex="1" parent="1">
          <mxGeometry x="-160" y="230" width="120" height="80" as="geometry" />
        </mxCell>
        <mxCell id="-TqONQY60ksFpiLHSI3q-10" style="edgeStyle=orthogonalEdgeStyle;rounded=0;orthogonalLoop=1;jettySize=auto;html=1;exitX=1;exitY=0.5;exitDx=0;exitDy=0;entryX=1;entryY=0.75;entryDx=0;entryDy=0;fontSize=18;" edge="1" parent="1" source="-TqONQY60ksFpiLHSI3q-5" target="-TqONQY60ksFpiLHSI3q-3">
          <mxGeometry relative="1" as="geometry" />
        </mxCell>
        <mxCell id="-TqONQY60ksFpiLHSI3q-5" value="LLC" style="rounded=0;whiteSpace=wrap;html=1;fontSize=18;" vertex="1" parent="1">
          <mxGeometry x="-185" y="420" width="170" height="40" as="geometry" />
        </mxCell>
        <mxCell id="-TqONQY60ksFpiLHSI3q-7" value="Load" style="text;html=1;align=center;verticalAlign=middle;resizable=0;points=[];autosize=1;strokeColor=none;fillColor=none;fontSize=18;" vertex="1" parent="1">
          <mxGeometry x="-240" y="305" width="60" height="30" as="geometry" />
        </mxCell>
        <mxCell id="-TqONQY60ksFpiLHSI3q-9" value="GetS" style="text;html=1;align=center;verticalAlign=middle;resizable=0;points=[];autosize=1;strokeColor=none;fillColor=none;fontSize=18;" vertex="1" parent="1">
          <mxGeometry x="-290" y="375" width="60" height="30" as="geometry" />
        </mxCell>
      </root>
    </mxGraphModel>
  </diagram>
</mxfile>
